<mxfile host="app.diagrams.net" modified="2023-12-19T01:26:15.646Z" agent="Mozilla/5.0 (Windows NT 10.0; Win64; x64) AppleWebKit/537.36 (KHTML, like Gecko) Chrome/120.0.0.0 Safari/537.36" version="22.1.11" etag="aJ97PCtTT4jzf_PPD5HX" type="github">
  <diagram name="Page-1" id="9iTtiZq9-TsZFg5jVh1a">
    <mxGraphModel>
      <root>
        <mxCell id="0" />
        <mxCell id="1" parent="0" />
      </root>
    </mxGraphModel>
  </diagram>
</mxfile>
